<?xml version="1.0" encoding="UTF-8"?>
<svg id="Capa_1" data-name="Capa 1" xmlns="http://www.w3.org/2000/svg" viewBox="0 0 101 101">
  <defs>
    <style>
      .cls-1 {
        stroke: red;
      }

      .cls-1, .cls-2, .cls-3, .cls-4 {
        stroke-miterlimit: 10;
      }

      .cls-1, .cls-4 {
        fill: red;
      }

      .cls-5 {
        fill: #fff;
      }

      .cls-2, .cls-3 {
        fill: none;
      }

      .cls-2, .cls-3, .cls-4 {
        stroke: #fff;
      }

      .cls-3, .cls-4 {
        stroke-width: 2px;
      }
    </style>
  </defs>
  <circle class="cls-1" cx="50.5" cy="50.5" r="50"/>
  <path class="cls-4" d="M57.34,41.25c-.53.2-1.13.31-1.8.31-.04,0-.07,0-.1,0-.02,0-.03,0-.05,0-.02,0-.03,0-.04,0-.01,0-.03,0-.04,0-.02,0-.03,0-.05,0-.03,0-.06,0-.1,0h-.01s-.07,0-.11,0c-.05,0-.09,0-.13,0-.03,0-.06,0-.1,0-.03,0-.05,0-.08,0-1.62,0-2.83-.64-3.63-1.59-.46-.51-.81-1.11-1.02-1.76-.45-1.07-.58-2.28-.31-3.42-2.62-1.27-5.54-2-8.65-2-11.05,0-20,8.95-20,20s8.95,20,20,20,20-8.95,20-20c0-4.32-1.43-8.27-3.76-11.53Z"/>
  <path class="cls-2" d="M56.72,32.92c-.08-.31-.38-3.29,4.04-7.37,2.6-2.4,7.3-3.75,10.22-1.9,6.27,3.97-2.04,18.73,5.7,34.93,1.57,3.3,3.37,5.71,4.51,7.13"/>
  <path class="cls-3" d="M60.33,34.08c.09.53.1,1.05.04,1.55-.46.21-.95.36-1.48.45-3.1.54-6-1.4-6.51-4.33-.09-.52-.1-1.04-.04-1.54.46-.22.95-.37,1.47-.46,3.08-.54,6,1.4,6.51,4.33Z"/>
  <path class="cls-2" d="M55.82,41.31s-.04,0-.07,0c0,0-.02,0-.02,0,0,0-.02,0-.03,0-.56,0-1.07-.07-1.54-.17-3.57-.52-5.06-3.48-4.45-6.03-.05,0-.11.02-.16.03-.15.45-.24.93-.24,1.42,0,2.76,2.64,5,5.91,5,.56,0,1.09-.06,1.6-.18.02-.05.02-.1.04-.14-.04,0-.08,0-.12,0-.29.04-.59.06-.91.07Z"/>
  <path class="cls-4" d="M52.31,30.14l-2.81,4.81"/>
  <path class="cls-4" d="M60.33,35.71l-2.99,5.39"/>
  <g>
    <polygon class="cls-5" points="86.63 69.3 82.96 68.37 84.52 73.31 80.7 67.78 77.04 66.79 78.31 64.57 74.43 59.7 79.13 62.88 80.51 59.65 82.01 65.15 86.63 69.3"/>
    <polygon class="cls-2" points="86.63 69.3 82.96 68.37 84.52 73.31 80.7 67.78 77.04 66.79 78.31 64.57 74.43 59.7 79.13 62.88 80.51 59.65 82.01 65.15 86.63 69.3"/>
  </g>
  <g>
    <polygon class="cls-5" points="83.7 71.53 79.78 68.81 76.72 72.29 77.73 67.4 74.89 65.55 78.75 64.05 81.07 58.12 81.2 62.97 85.22 60.98 81.81 66.14 83.7 71.53"/>
    <polygon class="cls-2" points="83.7 71.53 79.78 68.81 76.72 72.29 77.73 67.4 74.89 65.55 78.75 64.05 81.07 58.12 81.2 62.97 85.22 60.98 81.81 66.14 83.7 71.53"/>
  </g>
</svg>